<?xml version="1.0" encoding="UTF-8"?>
<svg width="30px" height="29px" viewBox="0 0 30 29" version="1.1" xmlns="http://www.w3.org/2000/svg" xmlns:xlink="http://www.w3.org/1999/xlink">
    <!-- Generator: Sketch 61 (89581) - https://sketch.com -->
    <title>Logo Copy</title>
    <desc>Created with Sketch.</desc>
    <g id="Logo-Copy" stroke="none" stroke-width="1" fill="none" fill-rule="evenodd">
        <text id="U-Copy-19" font-family="SinhalaMN, Sinhala MN" font-size="27" font-weight="normal" fill="#FFFFFF">
            <tspan x="3.29171926" y="28.1618469">U</tspan>
        </text>
        <path d="M13.269058,18.2666967 C13.269058,18.8995123 13.1940786,19.5235295 13.0441175,20.138767 C12.6539089,21.739655 10.5134953,23.7540576 6.2785982,23.6234638 C2.35594029,23.5024987 0.482813978,21.6498563 0.291719261,21.5230443 L1.17912949,20.2213173 C3.16411957,21.7337999 4.86394247,22.4900412 6.2785982,22.4900412 C9.74377629,22.4900412 10.3453821,20.9322916 10.3453821,19.623131 L10.3453821,18.2666967 C12.2944994,17.8448196 13.269058,17.8448196 13.269058,18.2666967 Z" id="J-Copy-13" fill="#FFFFFF" fill-rule="nonzero" transform="translate(6.780389, 20.789895) rotate(-360.000000) translate(-6.780389, -20.789895) "></path>
        <rect id="Rectangle-Copy-4" fill="#FFFFFF" x="1.3222506" y="5.77824791" width="11.8046799" height="1.23913987"></rect>
        <rect id="Rectangle-Copy-5" fill="#FFFFFF" transform="translate(11.807220, 12.022472) rotate(-270.000000) translate(-11.807220, -12.022472) " x="5.56299569" y="10.5606344" width="12.4884488" height="2.92367586"></rect>
        <text id="H" font-family="SinhalaMN, Sinhala MN" font-size="27" font-weight="normal" fill="#FFFFFF">
            <tspan x="12.3479715" y="17.8381531">H</tspan>
        </text>
    </g>
</svg>