<?xml version="1.0" encoding="UTF-8"?>
<svg width="30px" height="29px" viewBox="0 0 30 29" version="1.1" xmlns="http://www.w3.org/2000/svg" xmlns:xlink="http://www.w3.org/1999/xlink">
    <!-- Generator: Sketch 61 (89581) - https://sketch.com -->
    <title>Logo Copy</title>
    <desc>Created with Sketch.</desc>
    <g id="Logo-Copy" stroke="none" stroke-width="1" fill="none" fill-rule="evenodd">
        <path d="M12.8366411,28.5705383 C14.1901568,28.5705383 15.350313,28.3969543 16.3171099,28.0497864 C17.2839068,27.7026184 18.0771197,27.2324036 18.6967486,26.6391418 C19.3163775,26.0458801 19.7712114,25.3537415 20.0612505,24.5627258 C20.3512896,23.7717102 20.4963091,22.9279602 20.4963091,22.0314758 L20.4963091,22.0314758 L20.4963091,10.6804016 L19.2043169,10.6804016 L19.2043169,22.0314758 C19.2043169,22.7785461 19.0790728,23.4794739 18.8285845,24.134259 C18.5780962,24.7890442 18.2177447,25.3625305 17.7475298,25.854718 C17.277315,26.3469055 16.7082232,26.7358215 16.0402544,27.0214661 C15.3722857,27.3071106 14.6208208,27.4499329 13.7858599,27.4499329 C12.959688,27.4499329 12.2104204,27.3071106 11.5380572,27.0214661 C10.8656939,26.7358215 10.2922075,26.3469055 9.81759817,25.854718 C9.34298879,25.3625305 8.9782427,24.7890442 8.72335989,24.134259 C8.46847707,23.4794739 8.34103567,22.7785461 8.34103567,22.0314758 L8.34103567,22.0314758 L8.34103567,10.6804016 L5.40109426,10.6804016 L5.40109426,21.9523743 C5.40109426,22.8664368 5.56149465,23.7255676 5.88229543,24.5297668 C6.20309621,25.3339661 6.67770559,26.0348938 7.30612356,26.6325501 C7.93454153,27.2302063 8.71237356,27.7026184 9.63961965,28.0497864 C10.5668657,28.3969543 11.6325396,28.5705383 12.8366411,28.5705383 Z" id="U" fill="#FFFFFF" fill-rule="nonzero"></path>
        <path d="M13.269058,18.2666967 C13.269058,18.8995123 13.1940786,19.5235295 13.0441175,20.138767 C12.6539089,21.739655 10.5134953,23.7540576 6.2785982,23.6234638 C2.35594029,23.5024987 0.482813978,21.6498563 0.291719261,21.5230443 L1.17912949,20.2213173 C3.16411957,21.7337999 4.86394247,22.4900412 6.2785982,22.4900412 C9.74377629,22.4900412 10.3453821,20.9322916 10.3453821,19.623131 L10.3453821,18.2666967 C12.2944994,17.8448196 13.269058,17.8448196 13.269058,18.2666967 Z" id="J-Copy-13" fill="#FFFFFF" fill-rule="nonzero" transform="translate(6.780389, 20.789895) rotate(-360.000000) translate(-6.780389, -20.789895) "></path>
        <rect id="Rectangle-Copy-4" fill="#FFFFFF" x="1.3222506" y="5.77824791" width="11.8046799" height="1.23913987"></rect>
        <rect id="Rectangle-Copy-5" fill="#FFFFFF" transform="translate(11.807220, 12.022472) rotate(-270.000000) translate(-11.807220, -12.022472) " x="5.56299569" y="10.5606344" width="12.4884488" height="2.92367586"></rect>
        <polygon id="H" fill="#FFFFFF" fill-rule="nonzero" points="17.6609598 17.8381531 17.6609598 9.45338745 26.4412332 9.45338745 26.4412332 17.8381531 29.3811746 17.8381531 29.3811746 0.356707762 26.4412332 0.356707762 26.4412332 8.31959839 17.6609598 8.31959839 17.6609598 0.356707762 14.7210184 0.356707762 14.7210184 17.8381531"></polygon>
    </g>
</svg>